PathFileType  4	(X/Y/Z)
DataRate	CameraRate	NumFrames	NumMarkers	Units	OrigDataRate	OrigDataStartFrame	OrigNumFrames
  200.0 	  200.0 	    6 	     40 	mm 	  200.0 	      258 	    515
Frame#	Time	R.Shoulder			R.Clavicle			R.Bicep			R.Elbow			R.Forearm			R.Wrist			L.Shoulder			L.Clavicle			L.Scapula			L.Bicep			L.Elbow			L.Forearm			L.Wrist			R.ASIS			R.PSIS			S2			L.PSIS			L.ASIS			R.TH1			R.TH2			R.TH3			R.Knee			R.SH1			R.SH2			R.SH3			R.SH4			R.Ankle			R.Heel			R.MT5			L.TH1			L.TH2			L.TH3			L.TH4			L.Knee			L.SH1			L.SH2			L.SH3			L.Ankle			L.Heel			L.MT5			
		X1	Y1	Z1	X2	Y2	Z2	X3	Y3	Z3	X4	Y4	Z4	X5	Y5	Z5	X6	Y6	Z6	X7	Y7	Z7	X8	Y8	Z8	X9	Y9	Z9	X10	Y10	Z10	X11	Y11	Z11	X12	Y12	Z12	X13	Y13	Z13	X14	Y14	Z14	X15	Y15	Z15	X16	Y16	Z16	X17	Y17	Z17	X18	Y18	Z18	X19	Y19	Z19	X20	Y20	Z20	X21	Y21	Z21	X22	Y22	Z22	X23	Y23	Z23	X24	Y24	Z24	X25	Y25	Z25	X26	Y26	Z26	X27	Y27	Z27	X28	Y28	Z28	X29	Y29	Z29	X30	Y30	Z30	X31	Y31	Z31	X32	Y32	Z32	X33	Y33	Z33	X34	Y34	Z34	X35	Y35	Z35	X36	Y36	Z36	X37	Y37	Z37	X38	Y38	Z38	X39	Y39	Z39	X40	Y40	Z40	

258	1.28500	25.282	1303.206	-42.829	89.679	1287.704	-190.352	42.889	1075.592	-26.828	-66.008	1007.330	45.930	28.274	912.106	58.538	-2.306	811.070	121.651	68.529	1297.431	-414.230	99.995	1281.859	-245.678	-77.521	1295.071	-330.577	147.708	1161.763	-424.456	175.834	1031.337	-520.056	273.724	1030.998	-467.641	366.392	961.327	-477.467	114.902	857.038	-99.098	-130.115	906.298	-164.315	-139.448	908.174	-215.326	-132.467	926.582	-270.218	90.922	857.075	-366.920	144.714	670.004	-47.291	6.804	603.316	-66.748	42.562	539.580	-83.925	149.530	438.110	-90.371	238.553	332.541	-72.184	271.102	267.240	-87.357	138.466	297.775	-125.957	169.726	229.169	-132.974	326.422	82.086	-120.689	282.958	29.380	-181.419	451.125	78.704	-85.506	-14.998	597.705	-400.415	-22.517	519.621	-371.462	-157.984	623.852	-384.850	-175.168	550.461	-367.992	-152.379	458.505	-375.134	-152.852	354.482	-381.898	-248.615	404.123	-367.843	-288.945	335.585	-369.855	-317.936	92.385	-356.589	-413.408	68.391	-323.094	-232.146	21.293	-370.799
259	1.29000	32.445	1301.965	-41.702	96.772	1286.716	-189.214	50.222	1074.346	-25.850	-58.742	1005.883	46.566	35.346	910.572	59.045	4.710	809.418	122.064	75.519	1296.338	-412.975	107.032	1280.902	-244.554	-70.579	1294.202	-329.333	154.525	1160.365	-422.897	182.513	1030.421	-519.117	280.352	1030.115	-466.599	373.122	960.591	-476.656	122.756	856.334	-98.757	-122.447	905.175	-163.469	-131.894	906.946	-214.537	-125.008	925.282	-269.495	98.303	855.995	-366.633	153.218	669.859	-47.167	15.360	602.928	-66.145	51.171	539.248	-83.428	158.268	438.036	-90.234	245.897	331.444	-72.793	277.475	265.708	-88.190	145.114	298.021	-125.948	175.399	229.022	-133.142	329.370	80.575	-121.621	284.709	29.527	-182.359	453.782	74.602	-86.651	-8.020	596.669	-400.232	-15.568	518.541	-371.433	-150.917	622.964	-384.268	-168.191	549.579	-367.526	-145.505	457.707	-375.012	-147.593	353.742	-382.132	-242.452	404.850	-367.661	-283.872	336.859	-369.751	-316.509	93.848	-356.899	-412.347	71.315	-323.167	-231.830	21.131	-370.806
260	1.29500	39.629	1300.831	-40.548	103.872	1285.847	-188.060	57.612	1073.206	-24.875	-51.405	1004.524	47.202	42.495	909.126	59.544	11.797	807.845	122.447	82.491	1295.361	-411.722	114.074	1280.075	-243.410	-63.641	1293.429	-328.058	161.263	1159.006	-421.322	189.038	1029.527	-518.149	286.817	1029.148	-465.530	379.638	959.699	-475.862	130.627	855.785	-98.384	-114.745	904.183	-162.647	-124.294	905.827	-213.770	-117.488	924.067	-268.813	105.764	854.997	-366.277	161.724	669.833	-47.026	23.907	602.689	-65.483	59.755	539.054	-82.868	166.971	438.079	-90.038	253.185	330.444	-73.330	283.750	264.256	-88.945	151.674	298.403	-125.808	180.948	229.000	-133.170	332.049	79.101	-122.455	286.185	29.759	-183.209	456.146	70.429	-87.679	-0.845	595.682	-400.021	-8.386	517.499	-371.400	-143.665	622.049	-383.658	-160.991	548.656	-367.042	-138.393	456.919	-374.925	-142.146	353.041	-382.430	-236.054	405.626	-367.474	-278.565	338.212	-369.620	-314.922	95.442	-357.222	-411.069	74.551	-323.214	-231.520	21.005	-370.808
261	1.30000	46.831	1299.811	-39.369	110.976	1285.105	-186.893	65.057	1072.179	-23.908	-43.998	1003.262	47.837	49.721	907.778	60.035	18.954	806.362	122.798	89.441	1294.507	-410.476	121.119	1279.384	-242.251	-56.706	1292.756	-326.757	167.922	1157.697	-419.742	195.409	1028.660	-517.154	293.121	1028.101	-464.434	385.938	958.654	-475.087	138.506	855.398	-97.974	-107.016	903.331	-161.851	-116.653	904.824	-213.030	-109.914	922.944	-268.172	113.298	854.086	-365.850	170.218	669.930	-46.866	32.433	602.603	-64.759	68.298	539.002	-82.241	175.625	438.238	-89.780	260.415	329.552	-73.785	289.937	262.902	-89.611	158.153	298.918	-125.526	186.388	229.105	-133.046	334.499	77.685	-123.182	287.440	30.077	-183.960	458.262	66.240	-88.586	6.529	594.745	-399.786	-0.968	516.498	-371.372	-136.228	621.105	-383.027	-153.566	547.692	-366.549	-131.040	456.142	-374.880	-136.500	352.380	-382.799	-229.412	406.451	-367.287	-273.012	339.642	-369.465	-313.154	97.173	-357.559	-409.542	78.113	-323.236	-231.213	20.927	-370.806
262	1.30500	54.050	1298.912	-38.170	118.082	1284.492	-185.717	72.555	1071.273	-22.951	-36.520	1002.104	48.470	57.027	906.535	60.517	26.184	804.978	123.119	96.367	1293.784	-409.241	128.166	1278.833	-241.081	-49.777	1292.188	-325.434	174.504	1156.449	-418.167	201.626	1027.828	-516.133	299.265	1026.977	-463.312	392.022	957.457	-474.331	146.387	855.178	-97.525	-99.268	902.624	-161.084	-108.976	903.943	-212.318	-102.289	921.919	-267.576	120.899	853.267	-365.347	178.686	670.149	-46.687	40.924	602.670	-63.969	76.787	539.090	-81.543	184.218	438.510	-89.456	267.583	328.775	-74.150	296.039	261.662	-90.178	164.555	299.565	-125.097	191.730	229.342	-132.764	336.757	76.346	-123.796	288.520	30.480	-184.602	460.170	62.085	-89.369	14.105	593.862	-399.533	6.691	515.541	-371.356	-128.605	620.132	-382.381	-145.912	546.683	-366.052	-123.443	455.376	-374.889	-130.645	351.762	-383.245	-222.516	407.322	-367.109	-267.199	341.147	-369.290	-311.185	99.049	-357.912	-407.732	82.015	-323.235	-230.907	20.913	-370.802
263	1.31000	61.281	1298.139	-36.956	125.190	1284.013	-184.535	80.104	1070.494	-22.011	-28.975	1001.058	49.100	64.411	905.405	60.989	33.487	803.702	123.408	103.267	1293.197	-408.021	135.214	1278.425	-239.902	-42.854	1291.727	-324.091	181.008	1155.274	-416.609	207.690	1027.034	-515.086	305.249	1025.781	-462.166	397.889	956.113	-473.596	154.263	855.127	-97.033	-91.508	902.068	-160.350	-101.272	903.187	-211.637	-94.620	920.996	-267.024	128.559	852.546	-364.764	187.117	670.491	-46.485	49.368	602.892	-63.110	85.211	539.320	-80.770	192.739	438.893	-89.061	274.684	328.120	-74.417	302.057	260.545	-90.640	170.879	300.339	-124.514	196.981	229.710	-132.321	338.850	75.100	-124.293	289.467	30.967	-185.132	461.904	58.012	-90.029	21.882	593.036	-399.269	14.591	514.629	-371.359	-120.797	619.127	-381.728	-138.028	545.628	-365.563	-115.596	454.622	-374.962	-124.568	351.187	-383.774	-215.355	408.239	-366.947	-261.111	342.723	-369.098	-308.994	101.074	-358.281	-405.606	86.266	-323.214	-230.597	20.976	-370.796
